<?xml version="1.0" encoding="utf-8"?>
<!-- Generator: Adobe Illustrator 16.0.0, SVG Export Plug-In . SVG Version: 6.00 Build 0)  -->
<!DOCTYPE svg PUBLIC "-//W3C//DTD SVG 1.0//EN" "http://www.w3.org/TR/2001/REC-SVG-20010904/DTD/svg10.dtd">
<svg version="1.0" id="Layer_1" xmlns="http://www.w3.org/2000/svg" xmlns:xlink="http://www.w3.org/1999/xlink" x="0px" y="0px"
	 width="100px" height="100px" viewBox="0 0 100 100" enable-background="new 0 0 100 100" xml:space="preserve">
<path d="M83.333,10H16.667C13.001,10,10,13.001,10,16.667v66.666C10,86.999,13.001,90,16.667,90h66.666
	C86.999,90,90,86.999,90,83.333V16.667C90,13.001,86.999,10,83.333,10z M36.667,60c-5.524,0-10-4.476-10-10c0-5.521,4.476-10,10-10
	c5.523,0,10,4.479,10,10C46.667,55.524,42.19,60,36.667,60z M63.333,60c-5.523,0-10-4.476-10-10c0-5.521,4.477-10,10-10
	c5.524,0,10,4.479,10,10C73.333,55.524,68.857,60,63.333,60z"/>
</svg>
