<?xml version="1.0" encoding="utf-8"?>
<!-- Generator: Adobe Illustrator 16.0.0, SVG Export Plug-In . SVG Version: 6.00 Build 0)  -->
<!DOCTYPE svg PUBLIC "-//W3C//DTD SVG 1.0//EN" "http://www.w3.org/TR/2001/REC-SVG-20010904/DTD/svg10.dtd">
<svg version="1.0" id="Layer_1" xmlns="http://www.w3.org/2000/svg" xmlns:xlink="http://www.w3.org/1999/xlink" x="0px" y="0px"
	 width="100px" height="100px" viewBox="0 0 100 100" enable-background="new 0 0 100 100" xml:space="preserve">
<path d="M83.333,10H16.667C13.001,10,10,13.001,10,16.667v66.666C10,86.999,13.001,90,16.667,90h66.666
	C86.999,90,90,86.999,90,83.333V16.667C90,13.001,86.999,10,83.333,10z M80,50c0,1.126-0.075,2.239-0.195,3.333
	C78.145,68.333,65.442,80,50,80c-16.569,0-30-13.431-30-30s13.431-30,30-30c8.284,0,15.784,3.359,21.214,8.789l-4.713,4.714
	C62.275,29.277,56.442,26.667,50,26.667c-12.884,0-23.333,10.449-23.333,23.333S37.116,73.333,50,73.333
	c11.748,0,21.445-8.697,23.066-20H50v-6.666h23.066H80V50z"/>
</svg>
