<?xml version="1.0" encoding="utf-8"?>
<!-- Generator: Adobe Illustrator 16.0.0, SVG Export Plug-In . SVG Version: 6.00 Build 0)  -->
<!DOCTYPE svg PUBLIC "-//W3C//DTD SVG 1.0//EN" "http://www.w3.org/TR/2001/REC-SVG-20010904/DTD/svg10.dtd">
<svg version="1.0" id="Layer_1" xmlns="http://www.w3.org/2000/svg" xmlns:xlink="http://www.w3.org/1999/xlink" x="0px" y="0px"
	 width="100px" height="100px" viewBox="0 0 100 100" enable-background="new 0 0 100 100" xml:space="preserve">
<path d="M87.786,51.314l0.4-0.572c3.174-4.531,2.073-10.768-2.454-13.932c-4.099-2.871-9.574-2.213-12.927,1.296
	c-5.494-2.546-11.982-4.206-19.01-4.648c2.269-5.599,7.354-9.72,13.492-10.684c1.052,2.292,3.353,3.894,6.045,3.894
	C77.018,26.667,80,23.679,80,20c0-3.685-2.982-6.667-6.667-6.667c-2.874,0-5.303,1.83-6.236,4.375
	c-8.813,1.146-16.045,7.383-18.601,15.678c-7.903,0.195-15.215,1.9-21.302,4.72c-3.353-3.509-8.828-4.167-12.93-1.296
	c-4.524,3.164-5.625,9.401-2.451,13.932l0.4,0.572C10.805,54.039,10,56.953,10,60c0,14.732,17.91,26.666,40,26.666
	c22.093,0,40-11.934,40-26.666C90,56.953,89.195,54.039,87.786,51.314z M60,48.333c2.302,0,4.167,1.862,4.167,4.167
	c0,2.299-1.865,4.166-4.167,4.166s-4.167-1.867-4.167-4.166C55.833,50.196,57.698,48.333,60,48.333z M40,48.333
	c2.302,0,4.167,1.862,4.167,4.167c0,2.299-1.865,4.166-4.167,4.166c-2.301,0-4.166-1.867-4.166-4.166
	C35.834,50.196,37.699,48.333,40,48.333z M33.334,66.432l3.535-3.535c3.619,3.621,8.375,5.43,13.131,5.43s9.512-1.809,13.132-5.43
	l3.535,3.535C57.458,75.639,42.532,75.631,33.334,66.432z"/>
</svg>
