<?xml version="1.0" encoding="utf-8"?>
<!-- Generator: Adobe Illustrator 16.0.0, SVG Export Plug-In . SVG Version: 6.00 Build 0)  -->
<!DOCTYPE svg PUBLIC "-//W3C//DTD SVG 1.0//EN" "http://www.w3.org/TR/2001/REC-SVG-20010904/DTD/svg10.dtd">
<svg version="1.0" id="Layer_1" xmlns="http://www.w3.org/2000/svg" xmlns:xlink="http://www.w3.org/1999/xlink" x="0px" y="0px"
	 width="100px" height="100px" viewBox="0 0 100 100" enable-background="new 0 0 100 100" xml:space="preserve">
<path d="M79.766,66.898c-4.938-4.938-8.33-11.414-9.401-18.645c4.747-0.748,9.313-2.93,12.969-6.589l-3.333-5
	c-2.828,2.828-6.337,4.56-10,5.215V29.999c0-11.049-8.955-20-20-20s-20,8.951-20,20v11.881c-3.663-0.655-7.172-2.387-10-5.215
	l-3.333,5c3.656,3.659,8.222,5.841,12.969,6.589c-1.071,7.231-4.464,13.708-9.401,18.645c-2.923,2.924-6.396,5.291-10.234,6.973
	c2.92,2.92,6.79,4.871,11.104,5.381l2.227,5.229c3.679-3.682,9.648-3.682,13.337-0.004c7.356,7.363,19.297,7.367,26.67,0.004
	c3.685-3.682,9.654-3.682,13.333,0l2.227-5.229c4.313-0.51,8.184-2.461,11.104-5.381C86.162,72.189,82.688,69.822,79.766,66.898z"/>
</svg>
