<?xml version="1.0" encoding="utf-8"?>
<!-- Generator: Adobe Illustrator 16.0.0, SVG Export Plug-In . SVG Version: 6.00 Build 0)  -->
<!DOCTYPE svg PUBLIC "-//W3C//DTD SVG 1.0//EN" "http://www.w3.org/TR/2001/REC-SVG-20010904/DTD/svg10.dtd">
<svg version="1.0" id="Layer_1" xmlns="http://www.w3.org/2000/svg" xmlns:xlink="http://www.w3.org/1999/xlink" x="0px" y="0px"
	 width="100px" height="100px" viewBox="0 0 100 100" enable-background="new 0 0 100 100" xml:space="preserve">
<path d="M83.333,10H16.667C13.001,10,10,13.001,10,16.666v66.667C10,86.998,13.001,90,16.667,90h66.666
	C86.999,90,90,86.998,90,83.333V16.666C90,13.001,86.999,10,83.333,10z M77.588,40.982L50.264,80L32.627,39.459l-10,4.284L20,37.617
	l10-4.284c3.369-1.445,7.308,0.13,8.75,3.496l12.761,29.769l20.615-29.443c1.025-1.458,1.416-3.223,1.106-4.98
	c-0.31-1.751-1.282-3.281-2.741-4.297c-1.136-0.801-2.457-1.211-3.812-1.211c-0.388,0-0.781,0.033-1.172,0.104
	c-1.751,0.306-3.281,1.282-4.3,2.741l-5.463-3.828c4.223-6.029,12.539-7.494,18.568-3.269
	C80.349,26.634,81.813,34.947,77.588,40.982z"/>
</svg>
