<?xml version="1.0" encoding="utf-8"?>
<!-- Generator: Adobe Illustrator 16.0.0, SVG Export Plug-In . SVG Version: 6.00 Build 0)  -->
<!DOCTYPE svg PUBLIC "-//W3C//DTD SVG 1.0//EN" "http://www.w3.org/TR/2001/REC-SVG-20010904/DTD/svg10.dtd">
<svg version="1.0" id="Layer_1" xmlns="http://www.w3.org/2000/svg" xmlns:xlink="http://www.w3.org/1999/xlink" x="0px" y="0px"
	 width="100px" height="100px" viewBox="0 0 100 100" enable-background="new 0 0 100 100" xml:space="preserve">
<polygon points="40.022,56.667 54.453,56.667 59.978,43.333 45.547,43.333 "/>
<path d="M83.333,10H16.667C13.001,10,10,13.001,10,16.667v66.666C10,86.999,13.001,90,16.667,90h66.666
	C86.999,90,90,86.999,90,83.333V16.667C90,13.001,86.999,10,83.333,10z M80,43.333H67.194L61.67,56.667h11.663v6.666H58.909
	L52.005,80l-6.158-2.552l5.846-14.115h-14.43L30.358,80l-6.159-2.552l5.847-14.115H20v-6.666h12.806l5.524-13.334H26.667v-6.666
	h14.424L47.995,20l6.158,2.552l-5.846,14.115h14.43L69.642,20l6.159,2.552l-5.847,14.115H80V43.333z"/>
</svg>
