<?xml version="1.0" encoding="utf-8"?>
<!-- Generator: Adobe Illustrator 16.0.0, SVG Export Plug-In . SVG Version: 6.00 Build 0)  -->
<!DOCTYPE svg PUBLIC "-//W3C//DTD SVG 1.0//EN" "http://www.w3.org/TR/2001/REC-SVG-20010904/DTD/svg10.dtd">
<svg version="1.0" id="Layer_1" xmlns="http://www.w3.org/2000/svg" xmlns:xlink="http://www.w3.org/1999/xlink" x="0px" y="0px"
	 width="100px" height="100px" viewBox="0 0 100 100" enable-background="new 0 0 100 100" xml:space="preserve">
<path d="M83.333,10H16.667C13.001,10,10,13.001,10,16.667v66.667C10,86.998,13.001,90,16.667,90h66.666
	C86.999,90,90,86.998,90,83.334V16.667C90,13.001,86.999,10,83.333,10z M83.333,83.334H16.667v-30H30.3
	C31.892,62.787,40.095,70,50.003,70c9.902,0,18.105-7.213,19.697-16.666h13.633V83.334z M36.667,50
	c0-7.363,5.97-13.333,13.336-13.333c7.36,0,13.33,5.97,13.33,13.333s-5.97,13.334-13.33,13.334
	C42.637,63.334,36.667,57.363,36.667,50z M83.333,46.667H69.7C68.108,37.213,59.905,30,50.003,30
	c-9.908,0-18.111,7.213-19.703,16.667H16.667v-30h66.666V46.667z"/>
<path d="M76.667,30c0,1.833-1.501,3.333-3.334,3.333H70c-1.833,0-3.333-1.501-3.333-3.333v-3.333c0-1.833,1.5-3.333,3.333-3.333
	h3.333c1.833,0,3.334,1.5,3.334,3.333V30z"/>
</svg>
