<?xml version="1.0" encoding="utf-8"?>
<!-- Generator: Adobe Illustrator 16.0.0, SVG Export Plug-In . SVG Version: 6.00 Build 0)  -->
<!DOCTYPE svg PUBLIC "-//W3C//DTD SVG 1.0//EN" "http://www.w3.org/TR/2001/REC-SVG-20010904/DTD/svg10.dtd">
<svg version="1.0" id="Layer_1" xmlns="http://www.w3.org/2000/svg" xmlns:xlink="http://www.w3.org/1999/xlink" x="0px" y="0px"
	 width="100px" height="100px" viewBox="0 0 100 100" enable-background="new 0 0 100 100" xml:space="preserve">
<path d="M80,40.001H63.332C61.49,40.001,60,38.51,60,36.667V23.335c0-7.363-5.971-13.334-13.333-13.334h-3.332
	c-1.844,0-3.334,1.491-3.334,3.334v16.666c0,5.521-4.479,10-10,10H16.668c-3.666,0-6.668,3.001-6.668,6.666v30
	c0,3.664,3.002,6.666,6.668,6.666H30c2.312,3.965,8.412,6.66,13.334,6.66v0.006H80l0,0c5.52-0.006,9.996-4.479,9.996-10H90V50.001
	C90,44.479,85.52,40.001,80,40.001z M16.668,76.667v-30H30v30H16.668z M83.33,79.999c0,1.844-1.49,3.334-3.334,3.334H43.334v-0.006
	c-3.683,0-6.668-2.989-6.668-6.668V45.261c5.883-2.578,10-8.431,10-15.26V16.668c3.683,0,6.667,2.981,6.667,6.667v13.332
	c0,5.521,4.479,10,9.998,10H80c1.842,0,3.332,1.491,3.332,3.334v29.998H83.33z"/>
</svg>
