<?xml version="1.0" encoding="utf-8"?>
<!-- Generator: Adobe Illustrator 16.0.0, SVG Export Plug-In . SVG Version: 6.00 Build 0)  -->
<!DOCTYPE svg PUBLIC "-//W3C//DTD SVG 1.0//EN" "http://www.w3.org/TR/2001/REC-SVG-20010904/DTD/svg10.dtd">
<svg version="1.0" id="Layer_1" xmlns="http://www.w3.org/2000/svg" xmlns:xlink="http://www.w3.org/1999/xlink" x="0px" y="0px"
	 width="100px" height="100px" viewBox="0 0 100 100" enable-background="new 0 0 100 100" xml:space="preserve">
<path d="M89.999,50.001v-30h-0.004c0-5.521-4.476-10-9.996-10l0,0H43.333v0.007c-4.921,0-11.021,2.695-13.333,6.66H16.668
	c-3.666,0-6.667,3.001-6.667,6.667v29.998c0,3.666,3.001,6.667,6.667,6.667H30c5.521,0,10,4.479,10,10v16.666
	c0,1.843,1.49,3.333,3.333,3.333h3.333C54.029,89.999,60,84.03,60,76.667V63.333C60,61.491,61.49,60,63.333,60h16.666
	C85.52,60,89.999,55.521,89.999,50.001z M30,23.335v29.998H16.668V23.335H30z M83.332,20.001v30c0,1.842-1.49,3.332-3.333,3.332
	H63.333c-5.521,0-10,4.48-10,10v13.334c0,3.678-2.984,6.666-6.667,6.666V70c0-6.829-4.117-12.688-9.999-15.261V23.341
	c0-3.685,2.984-6.666,6.666-6.666v-0.007h36.663c1.842,0,3.333,1.491,3.333,3.333H83.332z"/>
</svg>
