<?xml version="1.0" encoding="utf-8"?>
<!-- Generator: Adobe Illustrator 16.0.0, SVG Export Plug-In . SVG Version: 6.00 Build 0)  -->
<!DOCTYPE svg PUBLIC "-//W3C//DTD SVG 1.0//EN" "http://www.w3.org/TR/2001/REC-SVG-20010904/DTD/svg10.dtd">
<svg version="1.0" id="Layer_1" xmlns="http://www.w3.org/2000/svg" xmlns:xlink="http://www.w3.org/1999/xlink" x="0px" y="0px"
	 width="100px" height="100px" viewBox="0 0 100 100" enable-background="new 0 0 100 100" xml:space="preserve">
<path d="M69.642,35.001C62.741,28.101,59.29,19.051,59.29,10c-8.887,13.304-14.095,27.98-15.911,42.85
	c-5.774-5.49-9.987-12.728-11.66-21.131C24.479,38.96,20,48.96,20,60c0,16.568,13.431,30,30,30s30-13.432,30-30
	C80,50.239,76.042,41.399,69.642,35.001z M50,83.333c-12.864,0-23.333-10.469-23.333-23.333c0-4.958,1.074-9.748,3.118-14.11
	c2.324,4.347,5.352,8.319,8.997,11.792l9.606,9.131l1.608-13.154c1.077-8.816,3.365-17.273,6.832-25.281
	c2.019,4.15,4.74,7.979,8.1,11.338c5.42,5.42,8.404,12.624,8.404,20.285C73.333,72.864,62.864,83.333,50,83.333z"/>
</svg>
