<?xml version="1.0" encoding="utf-8"?>
<!-- Generator: Adobe Illustrator 16.0.0, SVG Export Plug-In . SVG Version: 6.00 Build 0)  -->
<!DOCTYPE svg PUBLIC "-//W3C//DTD SVG 1.0//EN" "http://www.w3.org/TR/2001/REC-SVG-20010904/DTD/svg10.dtd">
<svg version="1.0" id="Layer_1" xmlns="http://www.w3.org/2000/svg" xmlns:xlink="http://www.w3.org/1999/xlink" x="0px" y="0px"
	 width="100px" height="100px" viewBox="0 0 100 100" enable-background="new 0 0 100 100" xml:space="preserve">
<path d="M80,43.335v-6.667H69.954l5.847-14.117l-6.159-2.553c0,0-3.021,7.292-6.904,16.67h-14.43l5.846-14.117l-6.158-2.549
	l-6.904,16.666H26.667v6.667H38.33l-5.524,13.333H20v6.667h10.046l-5.847,14.114l6.159,2.553l6.9-16.667h14.434
	c-3.359,8.112-5.846,14.114-5.846,14.114l6.158,2.553l6.904-16.667h14.424v-6.667H61.67l5.524-13.333H80z M54.453,56.668H40.022
	l5.524-13.333h14.431C58.147,47.749,56.247,52.339,54.453,56.668z"/>
</svg>
