<?xml version="1.0" encoding="utf-8"?>
<!-- Generator: Adobe Illustrator 16.0.0, SVG Export Plug-In . SVG Version: 6.00 Build 0)  -->
<!DOCTYPE svg PUBLIC "-//W3C//DTD SVG 1.0//EN" "http://www.w3.org/TR/2001/REC-SVG-20010904/DTD/svg10.dtd">
<svg version="1.0" id="Layer_1" xmlns="http://www.w3.org/2000/svg" xmlns:xlink="http://www.w3.org/1999/xlink" x="0px" y="0px"
	 width="100px" height="100px" viewBox="0 0 100 100" enable-background="new 0 0 100 100" xml:space="preserve">
<path d="M50,10c-22.093,0-40,16.412-40,36.666c0,7.943,2.786,15.28,7.478,21.289l-7.224,17.436
	c-0.703,1.699,0.104,3.646,1.804,4.355c0.853,0.352,1.764,0.325,2.552,0l21.27-8.809c4.395,1.523,9.141,2.396,14.121,2.396
	c22.097,0,40-16.426,40-36.667C90,26.412,72.097,10,50,10z M55.286,56.666L44.714,46.094l-10.57,10.572l-4.717-4.713l15.287-15.287
	l10.572,10.573l10.573-10.573l4.714,4.714L55.286,56.666z"/>
</svg>
