<?xml version="1.0" encoding="utf-8"?>
<!-- Generator: Adobe Illustrator 16.0.0, SVG Export Plug-In . SVG Version: 6.00 Build 0)  -->
<!DOCTYPE svg PUBLIC "-//W3C//DTD SVG 1.0//EN" "http://www.w3.org/TR/2001/REC-SVG-20010904/DTD/svg10.dtd">
<svg version="1.0" id="Layer_1" xmlns="http://www.w3.org/2000/svg" xmlns:xlink="http://www.w3.org/1999/xlink" x="0px" y="0px"
	 width="100px" height="100px" viewBox="0 0 100 100" enable-background="new 0 0 100 100" xml:space="preserve">
<path d="M83.333,10H16.667C13.001,10,10,13.001,10,16.667v66.666C10,86.999,13.001,90,16.667,90h66.666
	C86.999,90,90,86.999,90,83.333V16.667C90,13.001,86.999,10,83.333,10z M60.335,76.667c-7.549,0-13.668-6.123-13.668-13.669V43.333
	h-10v-6.666h10V23.333h6.666v13.334h13.334v6.666H53.333v19.665c0,3.86,3.142,7.002,7.002,7.002c1.869,0,3.627-0.729,4.955-2.054
	L70,72.663C67.526,75.134,64.111,76.667,60.335,76.667z"/>
</svg>
